<svg xmlns="http://www.w3.org/2000/svg" width="24" height="16" viewBox="0 0 24 16">
    <g fill="#FFF" fill-rule="nonzero">
        <path d="M22.804 4.269L18.607.771A3.33 3.33 0 0 0 16.478 0H6.5a2.91 2.91 0 0 0-2.618 1.618L3.691 2H.5a.5.5 0 0 0 0 1h2.691l-1 2H.5a.5.5 0 0 0 0 1h1.191l-1 2H.5a.5.5 0 0 0-.5.5c0 .183.104.337.251.424A2.93 2.93 0 0 0 0 10.073 2.93 2.93 0 0 0 2.927 13h.124c.245 1.692 1.691 3 3.449 3 1.758 0 3.204-1.308 3.449-3h4.101c.245 1.692 1.691 3 3.449 3 1.762 0 3.209-1.313 3.45-3.01a1.485 1.485 0 0 0 1.273-.82l.974-1.947a7.63 7.63 0 0 0 .803-3.4 3.308 3.308 0 0 0-1.195-2.554zM6.5 15A2.502 2.502 0 0 1 4 12.5C4 11.121 5.121 10 6.5 10S9 11.121 9 12.5 7.879 15 6.5 15zm11 0a2.502 2.502 0 0 1-2.5-2.5c0-1.379 1.121-2.5 2.5-2.5s2.5 1.121 2.5 2.5-1.121 2.5-2.5 2.5zm4.803-5.223l-.974 1.948a.489.489 0 0 1-.381.257C20.695 10.299 19.253 9 17.5 9c-1.759 0-3.204 1.308-3.449 3H9.949C9.704 10.308 8.258 9 6.5 9c-1.758 0-3.204 1.308-3.449 3h-.124a1.929 1.929 0 0 1-1.724-2.788L1.309 9H3.5a.5.5 0 0 0 0-1H1.809l1-2H5.5a.5.5 0 0 0 0-1H3.309l1-2H7.5a.5.5 0 0 0 0-1H4.821A1.91 1.91 0 0 1 6.5 1.001h9.978c.543 0 1.071.191 1.488.539l4.198 3.499c.531.441.836 1.093.836 1.785a6.64 6.64 0 0 1-.697 2.953z"/>
        <path d="M16.812 2.109a.51.51 0 0 0-.473-.083.504.504 0 0 0-.325.353l-1 4A.5.5 0 0 0 15.5 7h6a.5.5 0 1 0 .312-.891l-5-4zM16.141 6l.656-2.623L20.075 6h-3.934z"/>
    </g>
</svg>
