<svg xmlns="http://www.w3.org/2000/svg" width="22" height="22" viewBox="0 0 22 22">
    <path fill="#AEB6C5" fill-rule="nonzero" stroke="#222C3C" d="M13.171 17H1.992C1.456 17 1 17.448 1 18c0 .556.444 1 .992 1h11.179a3.001 3.001 0 0 0 5.658 0h1.179c.536 0 .992-.448.992-1 0-.556-.444-1-.992-1h-1.179a3.001 3.001 0 0 0-5.658 0zM9.83 12h10.179c.536 0 .992-.448.992-1 0-.556-.444-1-.992-1H9.83a3.001 3.001 0 0 0-5.658 0H1.993c-.536 0-.992.448-.992 1 0 .556.444 1 .992 1h2.179a3.001 3.001 0 0 0 5.658 0zm3.341-9H1.992C1.456 3 1 3.448 1 4c0 .556.444 1 .992 1h11.179a3.001 3.001 0 0 0 5.658 0h1.179c.536 0 .992-.448.992-1 0-.556-.444-1-.992-1h-1.179a3.001 3.001 0 0 0-5.658 0z"/>
</svg>
