<svg xmlns="http://www.w3.org/2000/svg" width="16" height="24" viewBox="0 0 16 24">
    <path fill="#AEB6C5" fill-rule="nonzero" d="M14.545 18.545c0 1.808-1.598 3.273-3.57 3.273h-5.95c-1.972 0-3.57-1.465-3.57-3.273v-2.181c0-1.547 1.173-2.834 2.745-3.176 1.073.851 2.382 1.357 3.8 1.357 1.418 0 2.727-.506 3.8-1.357 1.572.342 2.745 1.63 2.745 3.176v2.181zM2.91 7.273C2.91 4.06 5.19 1.455 8 1.455c2.812 0 5.09 2.605 5.09 5.818 0 3.213-2.278 5.818-5.09 5.818s-5.09-2.605-5.09-5.818zm10.146 4.62c.93-1.257 1.49-2.866 1.49-4.62C14.545 3.257 11.615 0 8 0 4.385 0 1.455 3.257 1.455 7.273c0 1.754.56 3.363 1.49 4.62C1.235 12.483 0 14.09 0 16v2.91a4.364 4.364 0 0 0 4.364 4.363h7.272A4.364 4.364 0 0 0 16 18.909V16c0-1.91-1.236-3.516-2.945-4.107z"/>
</svg>
