<svg xmlns="http://www.w3.org/2000/svg" width="26" height="18" viewBox="0 0 26 18">
    <path fill="#AEB6C5" fill-rule="nonzero" stroke="#AEB6C5" stroke-width=".2" d="M22.5 3h-6.551A2.505 2.505 0 0 0 13.5 1h-10A2.503 2.503 0 0 0 1 3.5v6C1 10.878 2.122 12 3.5 12h.306l-.78 2.342a.501.501 0 0 0 .774.558L7.667 12h2.384a2.505 2.505 0 0 0 2.449 2h5.833l3.867 2.9a.499.499 0 0 0 .774-.558L22.194 14h.306c1.378 0 2.5-1.122 2.5-2.5v-6C25 4.122 23.878 3 22.5 3zm-15 8a.496.496 0 0 0-.3.1l-2.72 2.04.494-1.481A.497.497 0 0 0 4.5 11h-1C2.673 11 2 10.327 2 9.5v-6C2 2.673 2.673 2 3.5 2h10c.651 0 1.201.419 1.408 1H12.5A2.503 2.503 0 0 0 10 5.5V11H7.5zm16.5.5c0 .827-.673 1.5-1.5 1.5h-1a.502.502 0 0 0-.474.659l.494 1.481-2.72-2.04a.5.5 0 0 0-.3-.1h-6c-.827 0-1.5-.673-1.5-1.5v-6c0-.827.673-1.5 1.5-1.5h10c.827 0 1.5.673 1.5 1.5v6z"/>
</svg>
