<svg xmlns="http://www.w3.org/2000/svg" width="22" height="17" viewBox="0 0 22 17">
    <g fill="none" fill-rule="evenodd" stroke="#AEB6C5" stroke-linecap="round" stroke-linejoin="round">
        <path d="M3.917 3.917h-2.5v10.416c0 .667.583 1.25 1.25 1.25h16.666c.667 0 1.25-.583 1.25-1.25V1.417H3.917v12.916c0 .667-.584 1.25-1.25 1.25"/>
        <path d="M5.58 7.25V3.917h.833c.5 0 .834.333.834.833v2.5M10.583 3.917H8.917V7.25h1.666M8.917 4.5h1.25M12.25 3.917V6l.833 1.25.834-1.25V3.917M13.917 3.917V6l.833 1.25.833-1.25V3.917M18.917 3.917h-.834c-.5 0-.833.333-.833.833 0 .5.333.833.833.833.5 0 .834.334.834.834 0 .5-.334.833-.834.833h-.833M5.583 8.917h5.833v4.167H5.583zM13.083 9h5.834M13.083 11h5.834M13.083 13h5.834"/>
    </g>
</svg>
