<svg xmlns="http://www.w3.org/2000/svg" width="24" height="22" viewBox="0 0 24 22">
    <g fill="#AEB6C5" fill-rule="nonzero">
        <path d="M23 .5H1a.5.5 0 0 0 0 1h.5V14a.5.5 0 0 0 .5.5h9.5v4.092c-.581.207-1 .757-1 1.408 0 .827.673 1.5 1.5 1.5s1.5-.673 1.5-1.5c0-.651-.419-1.201-1-1.408V14.5H22a.5.5 0 0 0 .5-.5V1.5h.5a.5.5 0 0 0 0-1zm-11 20a.5.5 0 1 1 0-1 .5.5 0 0 1 0 1zm9.5-7h-19v-12h19v12z"/>
        <path d="M16 7.5h4a.5.5 0 0 0 .5-.5c0-2.481-2.019-4.5-4.5-4.5a.5.5 0 0 0-.5.5v4a.5.5 0 0 0 .5.5zm.5-3.964A3.507 3.507 0 0 1 19.464 6.5H16.5V3.536z"/>
        <path d="M15 12.5c2.481 0 4.5-2.019 4.5-4.5a.5.5 0 0 0-1 0c0 1.93-1.57 3.5-3.5 3.5S11.5 9.93 11.5 8s1.57-3.5 3.5-3.5a.5.5 0 0 0 0-1A4.505 4.505 0 0 0 10.5 8c0 2.481 2.019 4.5 4.5 4.5zM8 12.5a.5.5 0 0 0 .5-.5V4a.5.5 0 0 0-1 0v8a.5.5 0 0 0 .5.5zM6 12.5a.5.5 0 0 0 .5-.5V7a.5.5 0 0 0-1 0v5a.5.5 0 0 0 .5.5zM4 12.5a.5.5 0 0 0 .5-.5V9a.5.5 0 0 0-1 0v3a.5.5 0 0 0 .5.5z"/>
    </g>
</svg>
