<?xml version="1.0" encoding="utf-8"?>
<!-- Generator: Adobe Illustrator 19.0.0, SVG Export Plug-In . SVG Version: 6.00 Build 0)  -->
<svg version="1.1" id="Слой_1" xmlns="http://www.w3.org/2000/svg" xmlns:xlink="http://www.w3.org/1999/xlink" x="0px" y="0px"
	 viewBox="0 0 512 512" style="enable-background:new 0 0 512 512;" xml:space="preserve">
<style type="text/css">
	.st0{clip-path:url(#SVGID_2_);fill:#26B99A;}
	.st1{clip-path:url(#SVGID_2_);fill:#556080;}
	.st2{clip-path:url(#SVGID_2_);fill:#FDC794;}
	.st3{clip-path:url(#SVGID_2_);fill:#FFE9EC;}
	.st4{clip-path:url(#SVGID_2_);fill:#FFFFFF;}
	.st5{clip-path:url(#SVGID_2_);fill:#F9A671;}
</style>
<g>
	<defs>
		<rect id="SVGID_1_" width="512" height="512"/>
	</defs>
	<clipPath id="SVGID_2_">
		<use xlink:href="#SVGID_1_"  style="overflow:visible;"/>
	</clipPath>
	<path class="st0" d="M256,170.7c-9.4,0-17.1,7.7-17.1,17.1c0,9.4,7.7,17.1,17.1,17.1c9.4,0,17.1-7.7,17.1-17.1
		C273.1,178.3,265.4,170.7,256,170.7 M256,221.9c-18.8,0-34.1-15.4-34.1-34.1c0-18.8,15.4-34.1,34.1-34.1
		c18.8,0,34.1,15.4,34.1,34.1C290.1,206.5,274.8,221.9,256,221.9"/>
	<path class="st0" d="M170.7,170.7c-9.4,0-17.1,7.7-17.1,17.1c0,9.4,7.7,17.1,17.1,17.1c9.4,0,17.1-7.7,17.1-17.1
		C187.7,178.3,180.1,170.7,170.7,170.7 M170.7,221.9c-18.8,0-34.1-15.4-34.1-34.1c0-18.8,15.4-34.1,34.1-34.1s34.1,15.4,34.1,34.1
		C204.8,206.5,189.4,221.9,170.7,221.9"/>
	<path class="st0" d="M366.9,196.3c-5.1,0-8.5-3.4-8.5-8.5c0-9.4-7.7-17.1-17.1-17.1c-9.4,0-17.1,7.7-17.1,17.1
		c0,5.1-3.4,8.5-8.5,8.5s-8.5-3.4-8.5-8.5c0-18.8,15.4-34.1,34.1-34.1c18.8,0,34.1,15.4,34.1,34.1
		C375.5,192.9,372.1,196.3,366.9,196.3"/>
	<path class="st1" d="M196.3,375.5H47.8c-23,0-47.8-16.2-47.8-42.7V46.9C0,22.2,23,0,47.8,0h417.3C489.8,0,512,22.2,512,46.9v243.2
		c0,5.1-3.4,8.5-8.5,8.5c-5.1,0-8.5-3.4-8.5-8.5V46.9c0-15.4-14.5-29.9-29.9-29.9H47.8c-15.4,0-30.7,14.5-30.7,29.9v285.9
		c0,15.4,16.2,25.6,30.7,25.6h148.5c5.1,0,8.5,3.4,8.5,8.5C204.8,372.1,201.4,375.5,196.3,375.5"/>
	<path class="st2" d="M375.5,512L263.7,396.8c-40.1-40.1-40.1-105,0-145.1s105-40.1,145.1,0L512,349.9V512H375.5z"/>
	<path class="st3" d="M288.4,372.9l35.8,35.8c4.3,4.3,9.4,6,15.4,6c46.9-3.4,83.6-40.1,87-87c0-6-1.7-11.1-6-15.4l-35.8-35.8
		c-26.5-26.5-70-26.5-96.4,0C261.1,302.9,261.1,345.6,288.4,372.9"/>
	<path class="st4" d="M366.9,354.1c-16.2,16.2-24.7,41-35,58.9c2.6,0.9,5.1,1.7,8.5,0.9c46.9-3.4,83.6-40.1,87-87
		c0-2.6,0-4.3-0.9-6.8h-0.9C407,331.1,383.1,337.1,366.9,354.1"/>
	<path class="st5" d="M418.1,477.9c-2.6,0-4.3-0.9-6-2.6c-3.4-3.4-3.4-8.5,0-11.9l55.5-55.5c3.4-3.4,8.5-3.4,11.9,0
		c3.4,3.4,3.4,8.5,0,11.9l-55.5,55.5C422.4,477,420.7,477.9,418.1,477.9"/>
</g>
</svg>
