<svg xmlns="http://www.w3.org/2000/svg" viewBox="0 0 99.47 55.48"><defs><style>.cls-1{fill:#1a1a1a;}.cls-2{fill:#688ee1;}.cls-3{fill:#415893;}.cls-4{fill:#4b4a4b;}.cls-5{fill:#8fb0ef;}</style></defs><title>Ресурс 1</title><g id="Слой_2" data-name="Слой 2"><g id="Слой_1-2" data-name="Слой 1"><polygon id="_Контур_" data-name="&lt;Контур&gt;" class="cls-1" points="70.87 14.55 42.46 14.56 66.08 20 70.97 55.48 75.85 19.99 99.47 14.55 71.06 14.55 70.87 14.55"/><polygon id="_Контур_2" data-name="&lt;Контур&gt;" class="cls-2" points="76.91 21.24 75.93 28.73 84.44 44.99 76.91 21.24"/><polygon id="_Контур_3" data-name="&lt;Контур&gt;" class="cls-3" points="77.42 33.83 75.72 30.37 75.19 34.58 79.85 50.7 77.42 33.83"/><polygon id="_Контур_4" data-name="&lt;Контур&gt;" class="cls-2" points="70.97 0 67.06 12.28 68.9 10.39 69.14 11.9 70.1 10.74 70.97 13.52 71.82 10.76 72.79 11.9 73.06 10.42 74.89 12.31 70.97 0"/><polygon id="_Контур_5" data-name="&lt;Контур&gt;" class="cls-4" points="70.87 14.55 42.46 14.56 66.08 20 70.97 55.48 71.06 14.55 70.87 14.55"/><polygon id="_Контур_6" data-name="&lt;Контур&gt;" class="cls-5" points="70.97 0 67.06 12.28 68.9 10.39 69.14 11.9 70.1 10.74 70.97 13.52 70.97 0"/><path id="_Составной_контур_" data-name="&lt;Составной контур&gt;" class="cls-4" d="M44.59,22.24a6,6,0,1,0,6,6A6,6,0,0,0,44.59,22.24Zm3.35,6a3.33,3.33,0,1,1-1-2.38A3.38,3.38,0,0,1,47.94,28.2Z"/><path id="_Составной_контур_2" data-name="&lt;Составной контур&gt;" class="cls-4" d="M10.82,31.32A5.63,5.63,0,0,0,11.91,28,5.82,5.82,0,0,0,6,22.24H0V41.49H2.59V33.43H8.48a4.23,4.23,0,1,1,0,8.45H0v2.52H8.48a6.71,6.71,0,0,0,2.34-13.06Zm-2.44-1a2.63,2.63,0,0,1-.47.37,1.36,1.36,0,0,1-.6.27c-.31,0-.63,0-.94,0H2.59V24.76H6a3.36,3.36,0,0,1,2.33.94,3.21,3.21,0,0,1,0,4.58Z"/><g id="_Группа_" data-name="&lt;Группа&gt;"><path id="_Контур_7" data-name="&lt;Контур&gt;" class="cls-2" d="M60.87,34.41l-2.06,6.5h.84l2.87-5.49A3.36,3.36,0,0,0,60.87,34.41Z"/><path id="_Контур_8" data-name="&lt;Контур&gt;" class="cls-2" d="M62.15,30.38a7.56,7.56,0,0,1,2.39,1.2L66,28.73l-.41-3.11h-2Z"/></g><g id="_Группа_2" data-name="&lt;Группа&gt;"><path id="_Контур_9" data-name="&lt;Контур&gt;" class="cls-3" d="M66.7,34.08l-.46-3.71-.92,1.87A7.62,7.62,0,0,1,66.7,34.08Z"/><path id="_Контур_10" data-name="&lt;Контур&gt;" class="cls-3" d="M63,44.63l-.87,6.07L64,44.08A7.55,7.55,0,0,1,63,44.63Z"/></g><path class="cls-4" d="M60,30.92c-.4,0-.81,0-1.21,0-.67,0-1.35,0-2,0a1.59,1.59,0,0,1-.79-.17,3.89,3.89,0,0,1-.69-.51,3.22,3.22,0,0,1,2.37-5.52h7.82L65,21.25l-.31,1h-5.8a10.83,10.83,0,0,0-2.82.19,5.74,5.74,0,0,0-2.41,9.78,5.06,5.06,0,0,0,2.06,1.21,5.46,5.46,0,0,0,1.24.11c.39,0,.78,0,1.17,0q.87,0,1.74-.09H60a4.21,4.21,0,0,1,4.21,4.21A4.12,4.12,0,0,1,60,41.76H26.7a8.42,8.42,0,1,1,2.51-.38h5.05a11.07,11.07,0,1,0-7.58,3H60a6.73,6.73,0,0,0,0-13.46Z"/><path class="cls-4" d="M4.17,52.11a1.11,1.11,0,0,0-.06-.39.78.78,0,0,0-.24-.32,2,2,0,0,0-.47-.28,7.24,7.24,0,0,0-.78-.28,7.48,7.48,0,0,1-1-.35A3.33,3.33,0,0,1,.9,50a2,2,0,0,1-.5-.61,1.68,1.68,0,0,1-.18-.79,1.76,1.76,0,0,1,.19-.81,1.92,1.92,0,0,1,.53-.64,2.51,2.51,0,0,1,.81-.42,3.47,3.47,0,0,1,1-.15,3.22,3.22,0,0,1,1.1.18,2.47,2.47,0,0,1,.83.48,2.1,2.1,0,0,1,.52.71,2.07,2.07,0,0,1,.18.86H4.17a1.39,1.39,0,0,0-.08-.49A1,1,0,0,0,3.84,48a1.16,1.16,0,0,0-.43-.25,1.88,1.88,0,0,0-.61-.09,2,2,0,0,0-.58.07,1.16,1.16,0,0,0-.41.21.83.83,0,0,0-.24.32,1,1,0,0,0-.08.4.8.8,0,0,0,.38.67,4.08,4.08,0,0,0,1.17.5,6.77,6.77,0,0,1,1.06.4,3,3,0,0,1,.75.5,1.8,1.8,0,0,1,.44.62,2,2,0,0,1,.14.78,1.83,1.83,0,0,1-.18.83,1.77,1.77,0,0,1-.52.63,2.44,2.44,0,0,1-.82.39,3.87,3.87,0,0,1-1.07.14,3.84,3.84,0,0,1-1-.14,2.94,2.94,0,0,1-.91-.43,2.24,2.24,0,0,1-.65-.72,2,2,0,0,1-.25-1H1.26a1.32,1.32,0,0,0,.12.59,1.11,1.11,0,0,0,.33.41,1.42,1.42,0,0,0,.5.23,2.58,2.58,0,0,0,.62.07,1.56,1.56,0,0,0,1-.27A.86.86,0,0,0,4.17,52.11Z"/><path class="cls-4" d="M12.35,50.53A4.72,4.72,0,0,1,12.14,52a3.24,3.24,0,0,1-.61,1.11,2.65,2.65,0,0,1-.95.7,3.2,3.2,0,0,1-2.45,0,2.72,2.72,0,0,1-1-.7A3.23,3.23,0,0,1,6.54,52a4.63,4.63,0,0,1-.22-1.49v-.37a4.65,4.65,0,0,1,.22-1.49,3.3,3.3,0,0,1,.62-1.12,2.67,2.67,0,0,1,1-.7,3,3,0,0,1,1.22-.24,3,3,0,0,1,1.23.24,2.66,2.66,0,0,1,1,.7,3.24,3.24,0,0,1,.61,1.12,4.75,4.75,0,0,1,.22,1.49Zm-1.26-.38A4.45,4.45,0,0,0,11,49.08a2.3,2.3,0,0,0-.34-.78,1.49,1.49,0,0,0-.55-.48,1.65,1.65,0,0,0-.74-.16,1.61,1.61,0,0,0-.73.16,1.51,1.51,0,0,0-.55.48,2.34,2.34,0,0,0-.35.78,4.27,4.27,0,0,0-.12,1.08v.38a4.3,4.3,0,0,0,.12,1.08,2.34,2.34,0,0,0,.35.79,1.52,1.52,0,0,0,.56.48,1.63,1.63,0,0,0,.73.16,1.49,1.49,0,0,0,1.29-.64,3.22,3.22,0,0,0,.45-1.87Z"/><path class="cls-4" d="M14.88,53h3.3v1H13.61V46.71h1.26Z"/><path class="cls-4" d="M24.35,46.71v4.87a2.63,2.63,0,0,1-.21,1.09,2.21,2.21,0,0,1-.58.78,2.47,2.47,0,0,1-.86.47,3.46,3.46,0,0,1-1.06.16,3.56,3.56,0,0,1-1.08-.16,2.41,2.41,0,0,1-.86-.47,2.16,2.16,0,0,1-.57-.78,2.72,2.72,0,0,1-.2-1.09V46.71h1.26v4.87a2,2,0,0,0,.1.67,1.22,1.22,0,0,0,.29.47A1.16,1.16,0,0,0,21,53a2,2,0,0,0,.6.09,2,2,0,0,0,.61-.09,1.13,1.13,0,0,0,.46-.27,1.24,1.24,0,0,0,.29-.47,2,2,0,0,0,.1-.67V46.71Z"/><path class="cls-4" d="M31,47.73H28.69V54H27.44V47.73H25.19v-1H31Z"/><path class="cls-4" d="M33.25,54H32V46.71h1.26Z"/><path class="cls-4" d="M40.61,50.53A4.72,4.72,0,0,1,40.39,52a3.24,3.24,0,0,1-.61,1.11,2.65,2.65,0,0,1-.95.7,3.2,3.2,0,0,1-2.45,0,2.72,2.72,0,0,1-1-.7A3.23,3.23,0,0,1,34.8,52a4.63,4.63,0,0,1-.22-1.49v-.37a4.65,4.65,0,0,1,.22-1.49,3.3,3.3,0,0,1,.62-1.12,2.67,2.67,0,0,1,1-.7,3,3,0,0,1,1.22-.24,3,3,0,0,1,1.23.24,2.66,2.66,0,0,1,1,.7,3.24,3.24,0,0,1,.61,1.12,4.75,4.75,0,0,1,.22,1.49Zm-1.26-.38a4.45,4.45,0,0,0-.12-1.08,2.3,2.3,0,0,0-.34-.78,1.49,1.49,0,0,0-.55-.48,1.65,1.65,0,0,0-.74-.16,1.61,1.61,0,0,0-.73.16,1.51,1.51,0,0,0-.55.48,2.34,2.34,0,0,0-.35.78,4.27,4.27,0,0,0-.12,1.08v.38A4.3,4.3,0,0,0,36,51.61a2.34,2.34,0,0,0,.35.79,1.52,1.52,0,0,0,.56.48,1.63,1.63,0,0,0,.73.16,1.49,1.49,0,0,0,1.29-.64,3.22,3.22,0,0,0,.45-1.87Z"/><path class="cls-4" d="M47.64,54H46.38l-3.24-5.16V54H41.87V46.71h1.26l3.25,5.18V46.71h1.25Z"/><path class="cls-4" d="M52.94,52.11a1.11,1.11,0,0,0-.06-.39.78.78,0,0,0-.24-.32,2,2,0,0,0-.47-.28,7.25,7.25,0,0,0-.78-.28,7.5,7.5,0,0,1-1-.35,3.32,3.32,0,0,1-.76-.46,2,2,0,0,1-.5-.61,1.68,1.68,0,0,1-.18-.79,1.76,1.76,0,0,1,.19-.81,1.92,1.92,0,0,1,.53-.64,2.52,2.52,0,0,1,.81-.42,3.48,3.48,0,0,1,1-.15,3.22,3.22,0,0,1,1.1.18,2.46,2.46,0,0,1,.83.48A2.1,2.1,0,0,1,54,48a2.07,2.07,0,0,1,.18.86H52.94a1.39,1.39,0,0,0-.08-.49,1,1,0,0,0-.25-.39,1.16,1.16,0,0,0-.43-.25,1.88,1.88,0,0,0-.61-.09,2,2,0,0,0-.58.07,1.16,1.16,0,0,0-.41.21.82.82,0,0,0-.24.32,1,1,0,0,0-.08.4.8.8,0,0,0,.38.67,4.08,4.08,0,0,0,1.17.5,6.77,6.77,0,0,1,1.06.4,3,3,0,0,1,.75.5,1.79,1.79,0,0,1,.44.62,2,2,0,0,1,.14.78,1.83,1.83,0,0,1-.18.83,1.77,1.77,0,0,1-.52.63,2.44,2.44,0,0,1-.82.39,4,4,0,0,1-2.1,0,2.94,2.94,0,0,1-.91-.43,2.24,2.24,0,0,1-.65-.72,2,2,0,0,1-.25-1H50a1.32,1.32,0,0,0,.12.59,1.1,1.1,0,0,0,.33.41A1.41,1.41,0,0,0,51,53a2.59,2.59,0,0,0,.62.07,1.56,1.56,0,0,0,1-.27A.86.86,0,0,0,52.94,52.11Z"/></g></g></svg>